<svg xmlns="http://www.w3.org/2000/svg" width="180" height="132" viewBox="0 0 180 132" fill="none">
  <rect width="180" height="132" fill="#E9BC87"/>
  <path d="M0 93h180v39H0z" fill="#A85D3E"/>
  <path d="M0 94h180" stroke="#263F3B" stroke-width="4"/>
  <ellipse cx="84" cy="88" rx="55" ry="24" fill="#F7F2E8" stroke="#263F3B" stroke-width="4"/>
  <path d="M43 85c10-17 20-24 34-20 14 4 18 17 22 30H36c1-4 3-7 7-10Z" fill="#F1C84B" stroke="#263F3B" stroke-width="3"/>
  <path d="m50 78 9-19m6 17 10-23m3 27 11-22m4 27 9-18" stroke="#FFF0B5" stroke-width="5" stroke-linecap="round"/>
  <rect x="122" y="40" width="34" height="47" rx="6" fill="#F7F2E8" stroke="#263F3B" stroke-width="4"/>
  <path d="M127 58h24v24h-24z" fill="#B86D49"/>
  <path d="M155 50c13 0 13 21 1 21" stroke="#263F3B" stroke-width="4"/>
  <path d="M124 35c8-7 19-7 28 0" stroke="#F7F2E8" stroke-width="4" stroke-linecap="round"/>
  <circle cx="24" cy="25" r="8" fill="#E97B77"/>
  <path d="M24 10v7m0 16v7M9 25h7m16 0h7" stroke="#263F3B" stroke-width="3"/>
</svg>
